<?xml version="1.0" standalone="no"?>
<!DOCTYPE svg PUBLIC "-//W3C//DTD SVG 20010904//EN"
 "http://www.w3.org/TR/2001/REC-SVG-20010904/DTD/svg10.dtd">
<svg version="1.0" xmlns="http://www.w3.org/2000/svg"
 width="1312.000000pt" height="1312.000000pt" viewBox="0 0 1312.000000 1312.000000"
 preserveAspectRatio="xMidYMid meet">
<metadata>
Created by potrace 1.14, written by Peter Selinger 2001-2017
</metadata>
<g transform="translate(0.000000,1312.000000) scale(0.100000,-0.100000)"
fill="#000000" stroke="none">
<path d="M886 11353 c-1 -1 -78 -3 -171 -4 -194 -1 -243 -11 -360 -69 -82 -40
-181 -124 -226 -190 -12 -19 -26 -37 -29 -40 -14 -12 -60 -131 -74 -190 -18
-75 -20 -195 -5 -260 6 -25 12 -49 13 -55 6 -32 45 -117 73 -161 47 -76 179
-204 210 -204 6 0 13 -4 15 -8 6 -15 163 -71 214 -76 27 -3 51 -5 54 -6 3 -1
284 -1 625 -1 l621 0 29 -57 c17 -31 44 -81 61 -112 17 -30 49 -89 71 -130 23
-41 57 -104 77 -140 20 -36 49 -90 64 -120 14 -30 29 -57 32 -60 3 -3 18 -27
32 -55 14 -27 40 -75 57 -105 17 -30 43 -80 58 -110 16 -30 30 -57 33 -60 6
-6 28 -46 67 -120 15 -30 31 -56 36 -58 4 -2 7 -12 7 -23 0 -10 4 -19 9 -19 5
0 16 -17 25 -37 9 -21 26 -56 39 -78 13 -22 38 -67 56 -100 18 -33 38 -66 43
-72 6 -7 7 -13 2 -13 -5 0 -4 -4 1 -8 6 -4 25 -36 44 -72 18 -36 46 -87 62
-115 16 -27 36 -66 46 -85 9 -19 19 -37 22 -40 4 -3 15 -23 26 -45 10 -22 27
-52 37 -67 10 -14 18 -33 18 -41 0 -9 4 -17 8 -19 8 -3 68 -111 136 -243 17
-33 36 -65 43 -72 6 -7 15 -23 19 -36 4 -12 9 -24 13 -27 3 -3 21 -34 40 -70
19 -36 47 -87 63 -115 15 -27 31 -57 35 -65 3 -8 39 -75 80 -148 40 -73 73
-137 73 -142 0 -6 5 -10 10 -10 6 0 10 -9 10 -19 0 -11 4 -21 9 -23 5 -1 17
-21 28 -43 30 -60 67 -129 73 -135 3 -3 12 -18 20 -35 23 -46 149 -278 160
-295 6 -8 14 -25 20 -37 5 -12 21 -40 35 -63 14 -22 22 -40 18 -40 -5 0 -3 -4
2 -8 6 -4 26 -36 44 -72 19 -36 38 -68 44 -71 5 -3 9 -10 10 -15 2 -18 22 -64
28 -64 3 0 14 -19 25 -42 10 -24 21 -45 24 -48 3 -3 13 -20 22 -38 19 -36 82
-151 140 -257 22 -38 46 -83 54 -100 8 -16 25 -48 37 -70 13 -22 45 -80 71
-130 27 -49 57 -103 66 -120 10 -16 33 -59 53 -95 121 -226 142 -258 220 -332
53 -51 193 -134 237 -142 8 -1 24 -5 35 -9 11 -3 43 -9 70 -13 190 -25 376 34
518 165 40 37 115 138 133 181 27 61 33 77 43 110 20 69 30 205 17 260 -1 8
-7 33 -11 55 -5 22 -10 42 -10 45 -5 17 -30 73 -57 125 -17 33 -38 72 -45 87
-8 15 -19 30 -24 33 -5 4 -7 11 -4 16 4 5 1 9 -5 9 -6 0 -8 5 -5 10 3 6 1 10
-4 10 -6 0 -11 4 -11 9 0 4 -18 41 -41 82 -23 41 -59 107 -81 148 -21 41 -53
100 -70 130 -18 31 -41 74 -52 96 -12 22 -27 46 -34 53 -7 8 -10 18 -7 23 4 5
1 9 -4 9 -6 0 -11 6 -11 14 0 7 -7 19 -15 26 -8 6 -14 15 -14 18 2 14 -14 52
-21 52 -5 0 -13 12 -19 28 -11 28 -67 129 -82 148 -5 6 -7 13 -4 16 3 3 -1 11
-10 18 -8 7 -15 16 -15 20 0 4 -18 40 -41 81 -47 84 -114 208 -155 289 -16 30
-32 57 -35 60 -3 3 -29 50 -59 105 -74 140 -120 224 -143 265 -11 19 -49 89
-85 155 -35 66 -72 134 -82 150 -17 28 -67 120 -121 225 -13 25 -28 48 -34 52
-7 5 -7 8 0 8 7 0 7 3 0 8 -5 4 -18 23 -29 42 -10 19 -38 71 -61 115 -23 44
-57 105 -74 135 -18 30 -39 71 -48 90 -8 19 -18 37 -22 40 -3 3 -13 19 -21 35
-8 17 -23 42 -33 58 -10 15 -15 27 -12 27 3 0 -2 12 -13 28 -10 15 -22 34 -26
42 -3 8 -17 33 -29 55 -13 22 -47 85 -77 140 -29 55 -73 135 -97 177 -23 43
-43 82 -43 88 0 5 -3 10 -8 10 -4 0 -13 15 -21 33 -8 17 -23 44 -33 60 -11 15
-16 27 -12 27 4 0 0 8 -8 18 -8 9 -21 32 -29 50 -8 17 -17 32 -21 32 -5 0 -8
6 -8 13 0 7 -13 34 -30 60 -16 26 -27 47 -24 47 3 0 -3 12 -13 28 -28 42 -40
63 -69 122 -15 30 -30 57 -33 60 -3 3 -20 32 -37 65 -18 33 -40 76 -50 95 -11
19 -23 38 -29 42 -5 4 -6 8 -1 8 5 0 1 9 -9 20 -10 11 -15 20 -11 20 4 0 -2
12 -13 26 -12 15 -21 30 -21 34 0 4 -22 45 -48 91 -27 46 -71 127 -99 179 -28
52 -61 115 -74 140 -13 25 -26 47 -29 50 -3 3 -14 23 -25 45 -52 101 -91 170
-97 173 -5 2 -8 12 -8 23 0 10 -4 19 -10 19 -5 0 -10 6 -10 14 0 7 -7 19 -15
26 -8 7 -13 16 -10 20 2 4 -5 17 -16 28 -11 12 -17 22 -13 22 11 0 -48 73 -99
123 -56 53 -148 117 -169 117 -8 0 -18 4 -23 9 -11 11 -110 39 -163 48 -32 5
-1411 11 -1416 6z"/>
<path d="M4595 11349 c-149 -7 -224 -26 -330 -85 -87 -49 -245 -226 -245 -274
0 -6 -5 -10 -10 -10 -6 0 -9 -3 -9 -7 1 -5 0 -11 -1 -15 -1 -5 -3 -11 -4 -15
-2 -5 -8 -26 -14 -48 -23 -80 -37 -265 -21 -265 4 0 7 -10 7 -22 0 -54 45
-159 137 -323 25 -44 70 -127 120 -220 18 -33 53 -98 79 -144 25 -46 46 -87
46 -91 0 -5 3 -10 8 -12 4 -1 20 -28 35 -58 16 -30 44 -84 64 -120 20 -36 49
-90 65 -120 16 -30 37 -69 47 -86 10 -17 38 -69 62 -115 24 -46 46 -86 50 -89
3 -3 12 -18 20 -35 15 -28 82 -153 119 -220 9 -16 30 -55 46 -85 16 -30 31
-57 34 -60 3 -3 14 -23 25 -45 11 -22 34 -65 51 -95 17 -30 55 -100 84 -155
29 -55 63 -116 75 -135 12 -19 26 -46 30 -60 4 -14 11 -27 14 -30 4 -3 28 -43
53 -90 25 -47 58 -107 73 -135 15 -27 40 -72 55 -100 29 -52 65 -120 146 -270
26 -49 52 -91 56 -93 4 -2 8 -9 8 -16 0 -7 13 -33 30 -59 16 -26 27 -47 24
-47 -3 0 3 -12 14 -27 11 -16 23 -38 26 -50 4 -13 12 -23 17 -23 5 0 9 -9 9
-19 0 -11 3 -21 8 -23 4 -1 15 -19 26 -38 43 -82 120 -224 184 -340 14 -25 32
-58 40 -75 9 -16 20 -33 25 -36 5 -3 8 -9 8 -13 -1 -9 12 -40 19 -46 3 -3 21
-34 39 -70 19 -36 44 -81 56 -100 12 -19 26 -46 30 -60 4 -14 11 -27 15 -30 3
-3 28 -45 55 -95 98 -183 108 -201 133 -245 51 -93 86 -157 114 -210 16 -30
37 -68 47 -85 9 -16 39 -70 66 -120 27 -49 59 -110 73 -135 13 -25 34 -63 45
-85 12 -22 27 -43 32 -47 6 -4 6 -8 2 -8 -5 0 1 -13 12 -29 12 -16 21 -31 21
-34 0 -2 27 -53 60 -112 33 -59 60 -109 60 -112 0 -2 16 -29 35 -59 42 -66
124 -150 185 -191 48 -32 169 -84 210 -90 14 -1 43 -6 65 -9 217 -30 442 66
583 252 26 34 224 427 304 604 11 25 26 48 32 52 6 4 8 8 4 8 -4 0 14 42 39
93 26 50 47 94 48 97 0 3 34 75 76 160 42 85 82 170 90 188 8 17 17 32 21 32
5 0 8 5 8 12 0 6 18 49 40 94 22 46 40 88 40 93 0 6 5 11 10 11 6 0 10 9 10
20 0 11 4 20 10 20 5 0 9 3 8 8 -1 4 32 75 72 157 83 169 75 153 85 183 4 12
11 22 16 22 5 0 9 5 9 11 0 12 52 122 161 343 38 77 69 145 69 152 0 7 3 14 8
16 6 3 54 94 57 108 0 5 37 79 207 427 33 67 59 125 58 128 0 3 6 13 15 21 8
9 13 19 10 24 -3 4 2 13 10 20 8 7 15 17 15 22 0 6 29 69 64 142 167 344 264
544 277 574 8 17 17 32 21 32 5 0 8 5 8 11 0 12 35 89 126 272 29 59 50 107
46 107 -4 0 -2 4 4 8 6 4 25 39 43 77 67 143 86 180 94 186 5 3 8 9 8 13 -1 7
44 103 186 396 55 113 103 215 107 228 4 12 12 22 17 22 5 0 9 6 9 14 0 8 14
40 31 72 62 119 90 300 66 424 -35 174 -145 329 -298 420 -36 21 -78 42 -95
46 -16 4 -33 10 -39 14 -40 30 -143 32 -2768 33 -1453 1 -2705 -1 -2782 -4z
m4345 -1269 c0 -4 -49 -109 -109 -231 -135 -278 -248 -512 -292 -604 -18 -38
-37 -73 -42 -76 -5 -3 -8 -9 -8 -13 2 -9 -197 -427 -275 -578 -13 -27 -21 -48
-17 -48 5 0 3 -4 -2 -8 -14 -10 -75 -131 -75 -148 0 -8 -4 -14 -10 -14 -5 0
-10 -5 -10 -11 0 -5 -41 -94 -92 -197 -50 -103 -92 -189 -93 -192 -1 -5 -28
-61 -214 -443 -55 -114 -101 -212 -101 -216 0 -5 -7 -14 -15 -21 -9 -7 -14
-15 -11 -17 2 -3 -13 -38 -35 -80 -21 -41 -39 -79 -39 -85 0 -5 -7 -16 -15
-25 -8 -8 -13 -19 -10 -24 4 -5 1 -9 -4 -9 -6 0 -10 -3 -9 -7 1 -5 -13 -38
-32 -76 l-33 -67 -29 52 c-16 29 -50 91 -75 138 -26 47 -54 99 -63 115 -9 17
-29 53 -44 80 -16 28 -31 55 -34 60 -4 6 -7 12 -7 15 0 4 -41 80 -66 120 -4 8
-25 48 -46 88 -20 39 -41 72 -45 72 -4 0 -8 9 -8 19 0 11 -4 22 -9 26 -6 3
-22 31 -37 63 -16 31 -31 59 -34 62 -4 3 -13 20 -21 38 -8 17 -18 32 -22 32
-5 0 -6 4 -3 9 3 5 -1 14 -9 21 -8 7 -15 17 -15 22 0 5 -38 77 -84 161 -133
241 -153 278 -193 355 -20 39 -41 72 -45 72 -4 0 -8 8 -8 19 0 10 -8 29 -18
42 -10 13 -58 98 -107 189 -48 91 -97 181 -108 200 -11 19 -38 69 -61 110 -22
41 -53 98 -68 125 -15 28 -33 62 -39 78 -6 15 -16 27 -22 27 -6 0 -8 3 -4 6 5
5 -7 28 -63 124 -5 8 -22 40 -37 70 -15 30 -30 57 -33 60 -3 3 -13 21 -24 40
-63 119 -148 277 -201 370 -20 36 -39 73 -42 83 -3 9 -10 17 -15 17 -5 0 -7 4
-3 9 7 12 3285 13 3285 1z"/>
<path d="M12240 11347 c-3 -4 -21 -8 -40 -11 -49 -7 -124 -28 -130 -36 -3 -4
-25 -17 -50 -29 -92 -43 -196 -148 -252 -255 -36 -68 -88 -184 -88 -196 0 -6
-5 -10 -12 -10 -6 0 -9 -2 -6 -6 3 -3 -7 -32 -23 -64 -16 -32 -31 -70 -35 -85
-3 -14 -10 -25 -15 -25 -5 0 -9 -4 -9 -9 0 -5 -5 -22 -12 -38 -6 -15 -11 -31
-10 -35 1 -5 -2 -8 -6 -8 -8 0 -37 -71 -33 -79 2 -2 -1 -7 -6 -10 -8 -5 -53
-95 -53 -105 0 -2 -17 -42 -39 -88 -55 -119 -91 -197 -111 -243 -10 -22 -32
-71 -50 -110 -17 -38 -38 -83 -45 -100 -20 -44 -78 -171 -111 -240 -15 -33
-29 -62 -29 -65 -3 -9 -23 -55 -58 -130 -34 -74 -62 -135 -107 -235 -12 -27
-41 -90 -64 -140 -23 -49 -44 -94 -46 -100 -1 -5 -17 -41 -35 -80 -104 -227
-132 -288 -135 -300 -1 -5 -7 -19 -13 -30 -6 -11 -10 -23 -9 -27 1 -5 -3 -8
-9 -8 -5 0 -8 -4 -5 -9 3 -5 -1 -14 -9 -21 -8 -7 -15 -18 -15 -25 0 -7 -23
-61 -51 -121 -28 -60 -58 -127 -68 -149 -10 -22 -29 -62 -42 -90 -12 -27 -23
-52 -24 -55 -1 -5 -27 -62 -75 -165 -24 -52 -79 -173 -93 -205 -5 -14 -10 -28
-9 -32 1 -5 -3 -8 -9 -8 -5 0 -7 -4 -4 -10 3 -5 1 -10 -4 -10 -6 0 -11 -4 -11
-9 0 -5 -5 -22 -11 -38 -6 -15 -10 -30 -9 -32 1 -2 -2 -7 -7 -10 -5 -3 -19
-28 -30 -56 -12 -27 -34 -77 -50 -110 -15 -33 -28 -62 -29 -65 -1 -5 -28 -64
-84 -185 -15 -33 -38 -82 -50 -110 -12 -27 -42 -92 -66 -144 -24 -51 -44 -95
-44 -97 0 -2 -20 -47 -45 -100 -25 -53 -45 -97 -45 -99 0 -2 -19 -43 -41 -92
-23 -48 -49 -106 -59 -128 -10 -22 -36 -79 -59 -128 -23 -48 -41 -89 -41 -91
0 -2 -18 -43 -41 -92 -52 -111 -63 -137 -61 -146 1 -5 -3 -8 -10 -8 -6 0 -8
-3 -5 -7 4 -3 1 -13 -6 -22 -13 -16 -45 -111 -55 -166 -10 -53 -6 -188 8 -245
31 -132 108 -259 202 -335 27 -22 55 -45 61 -50 49 -44 231 -105 301 -101 20
1 36 -1 36 -4 0 -14 138 6 216 32 144 47 283 163 352 293 38 71 114 240 115
253 0 6 3 12 7 12 4 0 13 18 20 40 7 22 16 40 20 40 4 0 7 6 7 13 0 6 21 56
47 110 25 54 46 100 46 102 0 2 17 41 39 87 21 46 45 99 54 118 8 19 35 78 59
130 112 240 300 660 298 666 -1 4 2 10 7 13 5 3 51 101 103 216 51 116 116
257 143 315 27 58 56 121 64 140 8 19 33 72 54 118 21 46 39 85 39 87 0 3 23
53 50 111 28 58 50 112 50 120 0 8 4 14 8 14 4 0 14 17 21 38 8 20 29 68 47
105 18 37 34 71 35 75 4 12 45 103 80 177 18 39 33 72 34 75 1 3 10 23 20 45
10 22 19 42 20 45 0 3 11 28 24 55 13 28 36 79 53 115 16 36 38 83 48 105 69
149 130 286 130 294 0 5 4 11 10 13 5 2 11 13 13 25 1 11 8 28 15 35 6 8 9 18
5 21 -3 4 -1 7 5 7 7 0 12 6 12 14 0 8 27 70 59 139 33 69 57 128 53 131 -3 3
1 6 8 6 7 0 10 3 7 6 -4 4 3 20 14 35 11 16 18 29 15 29 -4 0 6 24 21 53 15
28 28 57 29 62 1 6 31 73 67 150 108 236 163 357 165 365 1 3 19 42 42 88 22
45 40 84 40 86 0 2 12 30 27 62 14 33 26 62 25 67 -1 4 3 7 8 7 6 0 10 6 10
14 0 7 8 31 17 52 9 22 18 47 19 57 1 9 2 18 4 20 12 15 17 193 6 247 -11 57
-12 59 -18 66 -4 3 -4 12 -1 20 3 8 0 14 -6 14 -6 0 -11 7 -11 16 0 36 -69
142 -135 209 -83 84 -141 125 -215 150 -3 1 -12 4 -20 7 -60 24 -98 30 -190
35 -58 3 -107 3 -110 0z"/>
<path d="M5100 4081 c0 -3 -12 -6 -27 -6 -41 -1 -111 -13 -152 -26 -75 -25
-232 -92 -255 -110 -13 -11 -28 -19 -32 -19 -36 0 -264 -217 -325 -310 -77
-117 -142 -260 -163 -364 -3 -11 -8 -32 -11 -46 -4 -14 -6 -37 -6 -52 0 -15
-3 -30 -7 -32 -8 -5 -7 -206 2 -281 9 -87 64 -271 94 -319 3 -6 7 -17 9 -25 1
-8 5 -17 10 -20 4 -3 19 -26 32 -51 14 -25 30 -50 35 -57 30 -34 36 -43 32
-43 -20 0 167 -183 239 -234 95 -67 241 -140 325 -162 55 -14 153 -33 200 -39
30 -4 58 -9 62 -11 4 -2 9 0 12 5 4 6 18 6 35 1 16 -4 31 -7 33 -5 2 2 37 6
78 9 42 4 85 8 95 10 86 17 199 54 258 83 26 13 47 20 47 16 0 -5 4 -3 8 3 4
6 25 21 47 33 177 96 362 299 445 488 12 26 25 57 30 68 17 38 42 130 57 205
24 123 20 322 -8 425 -7 22 -12 47 -13 55 -2 8 -5 22 -8 30 -4 8 -12 33 -19
55 -6 22 -17 49 -22 60 -6 11 -12 22 -12 25 -7 27 -70 136 -106 182 -16 20
-29 40 -29 44 0 26 -261 253 -282 246 -5 -1 -8 2 -8 6 0 5 -21 20 -47 33 -27
13 -49 27 -51 32 -2 4 -9 7 -15 7 -7 0 -47 14 -89 30 -43 17 -90 31 -106 33
-15 2 -32 6 -37 9 -30 17 -355 35 -355 19z"/>
<path d="M9526 4082 c-3 -2 -24 -6 -48 -7 -54 -4 -178 -37 -240 -63 -25 -11
-49 -18 -52 -15 -3 4 -6 1 -6 -5 0 -7 -9 -12 -20 -12 -11 0 -20 -4 -20 -10 0
-5 -5 -10 -11 -10 -13 0 -166 -99 -189 -121 -8 -9 -39 -36 -68 -62 -29 -26
-51 -47 -48 -47 2 0 -13 -19 -35 -42 -21 -23 -42 -50 -45 -60 -3 -10 -10 -18
-15 -18 -5 0 -9 -7 -9 -15 0 -8 -4 -15 -10 -15 -5 0 -10 -6 -10 -14 0 -8 -4
-16 -8 -18 -9 -4 -67 -124 -93 -193 -65 -176 -82 -400 -44 -581 22 -103 19
-96 60 -199 89 -227 260 -426 470 -546 52 -30 109 -59 125 -64 3 -1 19 -7 35
-14 97 -41 294 -76 410 -72 100 2 217 18 255 34 8 4 26 8 40 11 51 9 241 92
248 109 2 4 8 7 13 7 17 0 153 105 208 160 54 54 147 173 175 225 9 17 21 37
26 45 8 12 25 52 35 80 1 3 5 12 8 20 21 49 47 130 52 159 3 19 8 37 10 41 7
12 19 152 18 225 0 79 -11 181 -26 235 -2 8 -7 29 -11 45 -15 58 -60 170 -88
220 -16 28 -34 61 -41 75 -6 14 -16 30 -22 36 -28 32 -45 55 -45 61 0 15 -180
183 -240 224 -140 95 -328 170 -461 184 -19 2 -34 4 -34 6 0 4 -245 6 -249 1z"/>
</g>
</svg>
