<svg width="7" height="12" viewBox="0 0 7 12" fill="none" xmlns="http://www.w3.org/2000/svg">
<path d="M0.546904 6.68015H2.47929L2.08035 10.4534C2.07859 10.4648 2.07811 10.4985 2.07811 10.5099C2.07811 10.8114 2.32356 11.057 2.62501 11.057C2.79652 11.057 2.96011 10.9747 3.06865 10.829L6.89065 5.36709C6.96107 5.27292 7 5.15655 7 5.03882C7 4.73724 6.75463 4.49168 6.45318 4.49168H4.08804L4.48178 1.1639C4.48306 1.15124 4.48394 1.11229 4.48394 1.09963C4.48442 0.798049 4.23897 0.55249 3.93752 0.55249C3.766 0.55249 3.60242 0.634797 3.49043 0.784905L0.109349 5.80475C0.038933 5.89884 0 6.01528 0 6.13301C0 6.43459 0.245454 6.68015 0.546904 6.68015Z" fill="#7600EC"/>
</svg>
