<svg width="17" height="16" viewBox="0 0 17 16" fill="none" xmlns="http://www.w3.org/2000/svg">
<path d="M11.8821 1.28125H5.47583C3.70679 1.28125 2.27271 2.71534 2.27271 4.48438V10.8906C2.27271 12.6597 3.70679 14.0938 5.47583 14.0938H11.8821C13.6511 14.0938 15.0852 12.6597 15.0852 10.8906V4.48438C15.0852 2.71534 13.6511 1.28125 11.8821 1.28125Z" stroke="black" stroke-width="1.09821" stroke-linecap="round" stroke-linejoin="round"/>
<path d="M11.2413 7.28379C11.3204 7.81695 11.2293 8.36146 10.9811 8.83988C10.7328 9.3183 10.3401 9.70626 9.85862 9.94859C9.37718 10.1909 8.83158 10.2753 8.29944 10.1896C7.7673 10.104 7.27571 9.85275 6.89458 9.47163C6.51346 9.09051 6.26222 8.59892 6.17659 8.06677C6.09096 7.53463 6.17531 6.98904 6.41763 6.5076C6.65995 6.02615 7.04792 5.63338 7.52633 5.38514C8.00475 5.13689 8.54927 5.04583 9.08242 5.12489C9.62626 5.20553 10.1297 5.45895 10.5185 5.84771C10.9073 6.23647 11.1607 6.73995 11.2413 7.28379Z" stroke="black" stroke-width="1.09821" stroke-linecap="round" stroke-linejoin="round"/>
<path d="M12.2021 4.16406H12.2088" stroke="black" stroke-width="1.09821" stroke-linecap="round" stroke-linejoin="round"/>
</svg>
