<svg width="17" height="16" viewBox="0 0 17 16" fill="none" xmlns="http://www.w3.org/2000/svg">
<path d="M10.8838 5.125C11.9032 5.125 12.8809 5.52997 13.6017 6.25081C14.3226 6.97165 14.7275 7.94932 14.7275 8.96875V13.4531H12.165V8.96875C12.165 8.62894 12.0301 8.30305 11.7898 8.06277C11.5495 7.82249 11.2236 7.6875 10.8838 7.6875C10.544 7.6875 10.2181 7.82249 9.97781 8.06277C9.73753 8.30305 9.60254 8.62894 9.60254 8.96875V13.4531H7.04004V8.96875C7.04004 7.94932 7.445 6.97165 8.16585 6.25081C8.88669 5.52997 9.86436 5.125 10.8838 5.125V5.125Z" stroke="black" stroke-width="1.09821" stroke-linecap="round" stroke-linejoin="round"/>
<path d="M4.47778 5.76562H1.91528V13.4531H4.47778V5.76562Z" stroke="black" stroke-width="1.09821" stroke-linecap="round" stroke-linejoin="round"/>
<path d="M3.19653 3.84375C3.90415 3.84375 4.47778 3.27011 4.47778 2.5625C4.47778 1.85489 3.90415 1.28125 3.19653 1.28125C2.48892 1.28125 1.91528 1.85489 1.91528 2.5625C1.91528 3.27011 2.48892 3.84375 3.19653 3.84375Z" stroke="black" stroke-width="1.09821" stroke-linecap="round" stroke-linejoin="round"/>
</svg>
