<svg width="143" height="30" viewBox="0 0 143 30" fill="none" xmlns="http://www.w3.org/2000/svg">
<path d="M47.0198 18V15.5612H50.4253V6.90469L50.4473 5.85009H50.4033C50.2715 6.09909 50.0371 6.39204 49.7003 6.72892L48.4479 7.91535L46.7781 6.15768L50.6889 2.40065H53.1717V15.5612H56.5552V18H47.0198ZM66.697 17.6485C65.95 18.0586 65.0638 18.2637 64.0385 18.2637C63.0132 18.2637 62.1197 18.0586 61.358 17.6485C60.611 17.2383 60.0251 16.6525 59.6004 15.8908C59.1756 15.1291 58.8607 14.2796 58.6556 13.3422C58.4652 12.4047 58.37 11.3501 58.37 10.1784C58.37 9.00657 58.4652 7.95197 58.6556 7.01455C58.8607 6.07712 59.1756 5.2349 59.6004 4.48789C60.0251 3.74088 60.611 3.16231 61.358 2.75219C62.1051 2.34206 62.9985 2.137 64.0385 2.137C67.8029 2.137 69.685 4.81745 69.685 10.1784C69.685 11.3501 69.5825 12.4047 69.3774 13.3422C69.187 14.2796 68.8794 15.1291 68.4547 15.8908C68.0445 16.6525 67.4586 17.2383 66.697 17.6485ZM61.2921 10.1784C61.2921 13.8402 62.2076 15.6711 64.0385 15.6711C65.8694 15.6711 66.7849 13.8402 66.7849 10.1784C66.7849 6.56048 65.8694 4.75154 64.0385 4.75154C62.2076 4.75154 61.2921 6.56048 61.2921 10.1784ZM72.1662 18V15.5612H75.5717V6.90469L75.5937 5.85009H75.5497C75.4179 6.09909 75.1835 6.39204 74.8466 6.72892L73.5943 7.91535L71.9245 6.15768L75.8353 2.40065H78.318V15.5612H81.7016V18H72.1662Z" fill="#0DB14B"/>
<path d="M83.055 16.1325L84.593 14.0013C85.1056 14.4554 85.7062 14.8435 86.3946 15.1658C87.0977 15.488 87.7861 15.6491 88.4599 15.6491C89.1629 15.6491 89.7195 15.488 90.1296 15.1658C90.5398 14.8289 90.7448 14.3968 90.7448 13.8695C90.7448 13.3275 90.4958 12.8588 89.9978 12.4633C89.4998 12.0679 88.8919 11.7236 88.1742 11.4307C87.4712 11.1378 86.7608 10.8155 86.0431 10.464C85.3253 10.1124 84.7175 9.61444 84.2195 8.96996C83.7215 8.32548 83.4725 7.55649 83.4725 6.66301C83.4725 5.31546 83.9705 4.22424 84.9665 3.38934C85.9771 2.55445 87.2515 2.137 88.7894 2.137C90.6203 2.137 92.1436 2.6936 93.3594 3.80679L92.107 6.11374C91.6676 5.71826 91.133 5.39602 90.5031 5.14702C89.888 4.88337 89.2801 4.75154 88.6796 4.75154C87.9618 4.75154 87.3833 4.91266 86.9439 5.2349C86.5191 5.55714 86.3067 5.98924 86.3067 6.53119C86.3067 7.05849 86.5557 7.51255 87.0537 7.89338C87.5517 8.27421 88.1523 8.60377 88.8553 8.88207C89.573 9.16037 90.2908 9.47529 91.0085 9.82682C91.7262 10.1637 92.3341 10.6544 92.8321 11.2989C93.3301 11.9434 93.5791 12.727 93.5791 13.6498C93.5791 14.968 93.1177 16.0666 92.1949 16.9454C91.2721 17.8242 90.0051 18.2637 88.3939 18.2637C87.3979 18.2637 86.4312 18.0806 85.4938 17.7144C84.5564 17.3482 83.7434 16.8209 83.055 16.1325ZM96.4054 18V2.40065H99.2397V9.0139H106.38V2.40065H109.192V18H106.38V11.4527H99.2397V18H96.4054ZM112.047 10.0905C112.047 7.83479 112.801 5.94529 114.31 4.42198C115.833 2.89866 117.766 2.137 120.11 2.137C122.454 2.137 124.38 2.89866 125.888 4.42198C127.412 5.94529 128.173 7.83479 128.173 10.0905C128.173 12.4047 127.412 14.3455 125.888 15.9128C124.38 17.48 122.454 18.2637 120.11 18.2637C117.766 18.2637 115.833 17.48 114.31 15.9128C112.801 14.3455 112.047 12.4047 112.047 10.0905ZM114.969 10.0905C114.969 11.687 115.452 13.0199 116.419 14.0892C117.4 15.1438 118.631 15.6711 120.11 15.6711C121.589 15.6711 122.812 15.1438 123.779 14.0892C124.76 13.0199 125.251 11.687 125.251 10.0905C125.251 8.56716 124.76 7.29284 123.779 6.26753C122.812 5.24222 121.589 4.72957 120.11 4.72957C118.631 4.72957 117.4 5.24222 116.419 6.26753C115.452 7.29284 114.969 8.56716 114.969 10.0905ZM131.035 18V2.40065H137.055C138.52 2.40065 139.714 2.86937 140.637 3.80679C141.559 4.74422 142.021 5.96726 142.021 7.47593C142.021 8.9846 141.559 10.2223 140.637 11.189C139.714 12.1411 138.52 12.6171 137.055 12.6171H133.87V18H131.035ZM133.87 10.1564H136.528C137.348 10.1564 137.985 9.9147 138.44 9.43135C138.908 8.94799 139.143 8.29618 139.143 7.47593C139.143 6.67033 138.908 6.03318 138.44 5.56446C137.985 5.0811 137.363 4.83942 136.572 4.83942H133.87V10.1564Z" fill="#FF7222"/>
<path d="M45.5309 27.1162L47.7229 20.8658H48.9202L51.1122 27.1162H49.9502L49.4132 25.514H47.2211L46.6929 27.1162H45.5309ZM47.5028 24.5896H49.1315L48.5769 22.917L48.3304 21.9486H48.3128C48.2189 22.3594 48.1367 22.6822 48.0663 22.917L47.5028 24.5896ZM51.9432 27.1162V20.8658H54.0032C54.5314 20.8658 54.9246 20.9215 55.1829 21.0331C55.5115 21.168 55.7697 21.3823 55.9576 21.6757C56.1454 21.9692 56.2393 22.3242 56.2393 22.7409C56.2393 23.1224 56.1454 23.4716 55.9576 23.7885C55.7697 24.0996 55.5144 24.3197 55.1917 24.4488V24.4664C55.2445 24.5309 55.312 24.6395 55.3941 24.7921L56.6794 27.1162H55.4029L54.1705 24.7833H53.0788V27.1162H51.9432ZM53.0788 23.7973H54.1C54.4052 23.7973 54.6458 23.7093 54.8219 23.5332C54.998 23.3513 55.086 23.1077 55.086 22.8025C55.086 22.3682 54.9217 22.0836 54.593 21.9486C54.4346 21.8782 54.2057 21.843 53.9064 21.843H53.0788V23.7973ZM57.1341 27.1162V26.3855L59.9072 22.4064C59.9776 22.3007 60.051 22.201 60.1273 22.1071C60.2036 22.0132 60.2623 21.9457 60.3033 21.9046L60.365 21.843V21.8254C60.2476 21.8371 60.0921 21.843 59.8984 21.843H57.275V20.8658H61.7911V21.5877L59.018 25.5756C58.9476 25.6813 58.8743 25.781 58.798 25.8749C58.7217 25.9688 58.663 26.0363 58.6219 26.0774L58.5603 26.139V26.1566C58.6776 26.1449 58.8332 26.139 59.0268 26.139H61.8351V27.1162H57.1341ZM62.4574 23.947C62.4574 23.0432 62.7596 22.2861 63.3641 21.6757C63.9745 21.0653 64.7492 20.7601 65.6882 20.7601C66.6272 20.7601 67.399 21.0653 68.0035 21.6757C68.6139 22.2861 68.9191 23.0432 68.9191 23.947C68.9191 24.8743 68.6139 25.6519 68.0035 26.2799C67.399 26.9079 66.6272 27.2219 65.6882 27.2219C64.7492 27.2219 63.9745 26.9079 63.3641 26.2799C62.7596 25.6519 62.4574 24.8743 62.4574 23.947ZM63.6282 23.947C63.6282 24.5867 63.8219 25.1208 64.2092 25.5492C64.6025 25.9718 65.0954 26.183 65.6882 26.183C66.281 26.183 66.771 25.9718 67.1584 25.5492C67.5516 25.1208 67.7482 24.5867 67.7482 23.947C67.7482 23.3366 67.5516 22.826 67.1584 22.4152C66.771 22.0044 66.281 21.799 65.6882 21.799C65.0954 21.799 64.6025 22.0044 64.2092 22.4152C63.8219 22.826 63.6282 23.3366 63.6282 23.947ZM70.0658 27.1162V20.8658H71.2015L73.5696 24.4752C73.64 24.5867 73.7163 24.7246 73.7985 24.8889C73.8865 25.0474 73.9569 25.1795 74.0098 25.2851L74.089 25.4436H74.1066C74.0655 25.0445 74.045 24.7217 74.045 24.4752V20.8658H75.1718V27.1162H74.045L71.6769 23.5156C71.6064 23.4041 71.5272 23.2691 71.4392 23.1107C71.357 22.9463 71.2895 22.8113 71.2367 22.7057L71.1575 22.5472H71.1399C71.1809 22.9463 71.2015 23.2691 71.2015 23.5156V27.1162H70.0658ZM76.1572 28.0406L76.7558 25.9806H77.865L77.0111 28.0406H76.1572ZM81.0099 23.9558C81.0099 23.052 81.315 22.2949 81.9254 21.6845C82.5358 21.0683 83.3075 20.7601 84.2407 20.7601C85.1797 20.7601 85.9515 21.0653 86.556 21.6757C87.1664 22.2861 87.4716 23.0461 87.4716 23.9558C87.4716 24.6835 87.2427 25.3438 86.7849 25.9366L87.4892 26.5704L86.8377 27.2923L86.151 26.6056C85.6052 27.0164 84.9685 27.2219 84.2407 27.2219C83.3075 27.2219 82.5358 26.9079 81.9254 26.2799C81.315 25.6519 81.0099 24.8772 81.0099 23.9558ZM82.1807 23.9558C82.1807 24.5896 82.3773 25.1208 82.7705 25.5492C83.1638 25.9718 83.6538 26.183 84.2407 26.183C84.6633 26.183 85.0271 26.0715 85.3323 25.8485L84.6369 25.1971L85.2795 24.484L85.9574 25.1619C86.1863 24.8038 86.3007 24.4018 86.3007 23.9558C86.3007 23.3395 86.1041 22.826 85.7109 22.4152C85.3177 22.0044 84.8276 21.799 84.2407 21.799C83.6538 21.799 83.1638 22.0044 82.7705 22.4152C82.3773 22.826 82.1807 23.3395 82.1807 23.9558ZM88.5479 24.8713V20.8658H89.6836V24.8625C89.6836 25.2792 89.8068 25.605 90.0533 25.8397C90.3057 26.0686 90.6431 26.183 91.0657 26.183C91.4882 26.183 91.8228 26.0686 92.0693 25.8397C92.3216 25.605 92.4478 25.2792 92.4478 24.8625V20.8658H93.5835V24.8713C93.5835 25.5697 93.3516 26.1361 92.888 26.5704C92.4302 27.0047 91.8257 27.2219 91.0745 27.2219C90.3174 27.2219 89.707 27.0047 89.2434 26.5704C88.7797 26.1361 88.5479 25.5697 88.5479 24.8713ZM95.0232 27.1162V20.8658H96.1588V26.139H98.8615V27.1162H95.0232ZM99.0563 27.1162L101.248 20.8658H102.446L104.638 27.1162H103.476L102.939 25.514H100.747L100.218 27.1162H99.0563ZM101.028 24.5896H102.657L102.102 22.917L101.856 21.9486H101.838C101.744 22.3594 101.662 22.6822 101.592 22.917L101.028 24.5896ZM106.326 27.1162V24.5016L104.239 20.8658H105.524L106.502 22.7057L106.88 23.542H106.898C107.021 23.2427 107.147 22.9639 107.276 22.7057L108.245 20.8658H109.53L107.452 24.5016V27.1162H106.326ZM113.448 27.1162L111.195 20.8658H112.418L113.792 24.9418L114.029 25.8573H114.047C114.129 25.4876 114.208 25.1824 114.285 24.9418L115.676 20.8658H116.882L114.628 27.1162H113.448ZM116.672 27.1162L118.864 20.8658H120.061L122.253 27.1162H121.091L120.554 25.514H118.362L117.834 27.1162H116.672ZM118.644 24.5896H120.272L119.718 22.917L119.471 21.9486H119.454C119.36 22.3594 119.278 22.6822 119.207 22.917L118.644 24.5896ZM126.169 27.1162V21.843H124.118V20.8658H129.347V21.843H127.296V27.1162H126.169ZM130.228 27.1162V20.8658H133.97V21.843H131.364V23.4804H133.468V24.4576H131.364V26.139H134.111V27.1162H130.228ZM134.792 27.1162V26.3855L137.565 22.4064C137.635 22.3007 137.708 22.201 137.785 22.1071C137.861 22.0132 137.92 21.9457 137.961 21.9046L138.022 21.843V21.8254C137.905 21.8371 137.749 21.843 137.556 21.843H134.932V20.8658H139.449V21.5877L136.675 25.5756C136.605 25.6813 136.532 25.781 136.455 25.8749C136.379 25.9688 136.32 26.0363 136.279 26.0774L136.218 26.139V26.1566C136.335 26.1449 136.491 26.139 136.684 26.139H139.493V27.1162H134.792ZM140.429 27.1162V25.9894H141.547V27.1162H140.429Z" fill="#282828"/>
<g clip-path="url(#clip0)">
<path d="M15.7895 18.2565L6.90796 1.97363H1.97375M31.0856 18.2565L38.4869 1.97363" stroke="#0DB14B" stroke-width="3.94737" stroke-linecap="round" stroke-linejoin="round"/>
<path d="M14.3092 1.97363L23.1908 18.2565L31.0855 1.97363H14.3092Z" stroke="#FF7222" stroke-width="3.94737" stroke-linecap="round" stroke-linejoin="round"/>
<circle cx="16.2829" cy="26.1512" r="2.96053" fill="#0DB14B" stroke="#0DB14B" stroke-width="0.986842"/>
<circle cx="30.0986" cy="26.1512" r="2.96053" fill="#0DB14B" stroke="#0DB14B" stroke-width="0.986842"/>
</g>
<defs>
<clipPath id="clip0">
<rect width="40.4605" height="29.6053" fill="white"/>
</clipPath>
</defs>
</svg>
