<svg width="16" height="13" viewBox="0 0 16 13" fill="none" xmlns="http://www.w3.org/2000/svg">
<path d="M15.011 0.921969C14.3975 1.3547 13.7183 1.68566 12.9994 1.90213C12.6136 1.4585 12.1008 1.14407 11.5305 1.00136C10.9601 0.85865 10.3597 0.894548 9.81044 1.1042C9.26116 1.31385 8.78952 1.68713 8.4593 2.17357C8.12909 2.66001 7.95623 3.23612 7.96411 3.824V4.46463C6.8383 4.49382 5.72274 4.24413 4.71679 3.7378C3.71084 3.23147 2.84572 2.48422 2.19849 1.56259C2.19849 1.56259 -0.364014 7.32822 5.40161 9.89072C4.08226 10.7863 2.51057 11.2353 0.917236 11.172C6.68286 14.3751 13.7297 11.172 13.7297 3.80478C13.7291 3.62634 13.712 3.44833 13.6785 3.27306C14.3323 2.62827 14.7937 1.81418 15.011 0.921969V0.921969Z" stroke="black" stroke-width="1.09821" stroke-linecap="round" stroke-linejoin="round"/>
</svg>
